<?xml version="1.0" encoding="UTF-8" standalone="no"?>
<!-- Created with Inkscape (http://www.inkscape.org/) -->

<svg
   width="24in"
   height="20in"
   viewBox="0 0 24 20"
   version="1.1"
   id="SVGRoot"
   sodipodi:docname="hoomantop24x20.svg"
   inkscape:version="1.2.2 (1:1.2.2+202212051552+b0a8486541)"
   xmlns:inkscape="http://www.inkscape.org/namespaces/inkscape"
   xmlns:sodipodi="http://sodipodi.sourceforge.net/DTD/sodipodi-0.dtd"
   xmlns="http://www.w3.org/2000/svg"
   xmlns:svg="http://www.w3.org/2000/svg">
  <sodipodi:namedview
     id="namedview16493"
     pagecolor="#ffffff"
     bordercolor="#000000"
     borderopacity="0.25"
     inkscape:showpageshadow="2"
     inkscape:pageopacity="0.0"
     inkscape:pagecheckerboard="0"
     inkscape:deskcolor="#d1d1d1"
     inkscape:document-units="in"
     showgrid="false"
     inkscape:zoom="0.55118716"
     inkscape:cx="975.16786"
     inkscape:cy="478.05903"
     inkscape:window-width="1846"
     inkscape:window-height="1016"
     inkscape:window-x="1994"
     inkscape:window-y="27"
     inkscape:window-maximized="1"
     inkscape:current-layer="layer1" />
  <defs
     id="defs16488">
    <clipPath
       id="clip1-9">
      <path
         inkscape:connector-curvature="0"
         d="M 3,0 H 5 V 6 H 3 Z m 0,0"
         id="path2-1" />
    </clipPath>
    <clipPath
       id="clip2-2">
      <path
         inkscape:connector-curvature="0"
         d="m 22.667969,6 c 0,-9.203125 -7.464844,-16.667969 -16.667969,-16.667969 -9.203125,0 -16.667969,7.464844 -16.667969,16.667969"
         id="path5-7" />
    </clipPath>
  </defs>
  <g
     inkscape:label="Layer 1"
     inkscape:groupmode="layer"
     id="layer1">
    <text
       xml:space="preserve"
       style="font-size:64px;font-family:'Saira Stencil One';-inkscape-font-specification:'Saira Stencil One';text-align:center;text-anchor:middle;white-space:pre;inline-size:705.843;display:inline;fill:#000000;stroke:#000000;stroke-width:0.15"
       x="428.45721"
       y="169.00714"
       id="text7634"
       transform="matrix(0.0252407,0,0,0.02296647,1.4584653,-2.0856846)"><tspan
         x="428.45721"
         y="169.00714"
         id="tspan17379"><tspan
           style="font-family:Purisa;-inkscape-font-specification:Purisa"
           id="tspan17377">algluu ĝin en 
</tspan></tspan><tspan
         x="428.45721"
         y="251.12731"
         id="tspan17383"><tspan
           style="font-family:Purisa;-inkscape-font-specification:Purisa"
           id="tspan17381">vian manĝtubon!</tspan></tspan></text>
    <g
       transform="matrix(0.00185748,0,0,-0.00215627,-0.02779637,20.697866)"
       fill="#000000"
       stroke="none"
       id="g7209">
      <path
         d="m 1090,8779 c -114,-20 -235,-95 -334,-209 -45,-51 -65,-87 -97,-170 -68,-174 -82,-247 -76,-375 6,-119 30,-204 100,-355 28,-61 50,-90 118,-155 103,-98 183,-141 298,-157 198,-29 386,52 516,224 222,292 202,734 -46,1020 -47,54 -169,135 -245,162 -55,19 -168,26 -234,15 z m 123,-340 c 166,-46 263,-377 169,-578 -32,-70 -147,-161 -202,-161 -70,0 -184,102 -220,195 -43,114 -21,327 44,438 29,50 73,88 121,105 39,14 43,14 88,1 z"
         id="path7179" />
      <path
         d="m 1090,7995 c -77,-35 -101,-87 -61,-136 17,-22 29,-24 111,-28 98,-3 134,6 170,44 21,22 21,23 3,61 -10,22 -31,45 -48,53 -44,22 -133,24 -175,6 z"
         id="path7181" />
      <path
         d="m 2360,7972 c -197,-200 -250,-271 -385,-522 -120,-221 -152,-312 -208,-590 -63,-306 -62,-292 -59,-1253 l 3,-878 -33,6 c -78,13 -111,13 -155,0 -55,-17 -62,-11 -63,50 0,22 -5,119 -10,215 -5,96 -15,265 -21,375 -6,110 -12,443 -13,740 -3,523 -4,542 -25,615 -46,155 -127,259 -241,307 -60,26 -75,28 -195,27 -168,0 -236,-19 -365,-102 -87,-56 -145,-122 -196,-225 -79,-158 -88,-198 -88,-387 0,-178 6,-210 77,-450 19,-63 44,-151 57,-195 12,-44 28,-93 36,-110 7,-16 45,-132 83,-258 39,-125 72,-231 75,-236 11,-17 86,-381 106,-511 6,-41 15,-95 20,-120 5,-25 16,-101 25,-170 34,-287 88,-616 105,-649 11,-20 23,437 24,864 0,290 -3,383 -17,480 -9,66 -21,153 -27,193 -5,41 -19,112 -30,159 -11,46 -20,94 -20,106 0,22 -97,414 -106,428 -8,14 -45,206 -58,309 -17,122 -8,274 19,357 26,76 91,138 173,163 35,11 81,20 101,20 45,0 98,-32 112,-67 6,-17 10,-220 9,-562 0,-343 5,-647 14,-846 23,-461 35,-731 51,-1119 8,-193 19,-406 25,-475 5,-69 12,-225 16,-346 6,-199 4,-232 -15,-345 -26,-151 -42,-205 -88,-290 -46,-86 -122,-156 -252,-231 -58,-34 -137,-81 -176,-105 -38,-23 -91,-53 -117,-65 -27,-13 -48,-26 -48,-29 0,-4 33,-1 73,6 347,60 359,63 492,124 105,48 245,176 271,248 9,26 32,77 51,115 49,97 80,210 104,387 20,148 21,182 16,722 l -6,566 27,-14 c 40,-20 131,-18 168,5 l 30,19 13,-322 c 17,-441 27,-530 92,-791 27,-110 108,-293 181,-412 30,-48 57,-94 59,-100 14,-43 235,-267 342,-347 98,-74 288,-171 364,-186 32,-6 90,-21 128,-33 63,-20 92,-22 290,-21 189,0 243,4 381,27 208,34 308,58 421,99 103,38 127,54 68,45 -227,-34 -696,-7 -930,54 -120,32 -344,139 -418,202 -34,29 -86,70 -116,92 -56,42 -191,203 -268,319 -95,145 -160,287 -196,436 -22,87 -47,383 -47,552 v 137 l 103,3 c 56,2 103,3 104,3 1,-1 7,-51 13,-113 20,-217 56,-364 146,-592 29,-74 70,-182 91,-239 34,-93 39,-102 44,-75 13,60 9,1362 -6,1799 -8,242 -19,625 -25,850 -6,226 -15,480 -20,565 -5,85 -9,222 -10,303 0,82 -4,146 -8,143 -10,-6 -34,-88 -56,-191 -8,-38 -24,-111 -36,-160 -32,-141 -49,-254 -69,-470 -33,-344 -40,-434 -51,-645 -6,-113 -15,-277 -20,-365 -5,-88 -9,-242 -10,-342 v -183 h -95 -95 v 333 c 0,407 -13,748 -45,1232 -29,431 -30,546 -10,790 22,261 61,473 113,625 27,76 130,296 163,345 14,22 34,55 44,74 9,19 39,64 65,100 55,77 84,121 79,121 -2,0 -56,-53 -119,-118 z"
         id="path7183" />
      <path
         d="m 8435,6419 c 83,-43 163,-157 186,-264 7,-33 17,-69 22,-79 5,-11 13,-63 17,-115 9,-118 -6,-1349 -20,-1596 -5,-99 -15,-261 -20,-360 -17,-283 -15,-659 3,-810 33,-271 114,-606 179,-741 l 43,-89 7,80 c 3,44 11,172 17,285 6,113 13,248 16,300 3,52 12,217 20,365 9,149 20,304 25,345 42,326 45,395 45,1015 0,660 2,621 -61,993 -30,178 -53,264 -99,372 -44,103 -97,175 -164,225 -57,41 -188,95 -229,95 -25,-1 -24,-2 13,-21 z"
         id="path7185" />
      <path
         d="m 4275,6355 c -347,-37 -634,-121 -815,-239 -30,-20 -60,-36 -66,-36 -7,0 -27,-13 -46,-29 -96,-84 -130,-111 -137,-111 -10,0 -171,-159 -171,-170 0,-5 -17,-29 -37,-54 -92,-109 -218,-332 -266,-468 -63,-177 -94,-476 -67,-657 16,-114 54,-282 79,-353 23,-67 110,-217 178,-308 67,-90 190,-193 282,-236 42,-20 88,-43 103,-51 131,-68 321,-58 412,23 38,33 30,40 -99,96 -135,59 -229,122 -313,210 -228,239 -314,451 -313,768 1,136 38,369 69,427 11,21 33,67 49,103 50,117 100,198 249,403 16,20 31,37 35,37 4,0 54,45 111,100 57,55 109,100 116,100 8,0 26,8 40,18 81,56 239,135 302,153 39,11 89,28 110,39 62,32 390,114 555,140 266,41 407,60 444,60 82,0 36,9 -124,25 -236,22 -525,27 -680,10 z"
         id="path7187" />
      <path
         d="m 9700,6259 c -80,-16 -151,-59 -234,-144 -67,-69 -86,-97 -137,-201 -32,-66 -59,-126 -59,-133 0,-6 -8,-28 -19,-49 -34,-68 -87,-324 -116,-567 -23,-190 -30,-517 -16,-776 44,-823 62,-1014 131,-1384 10,-55 24,-162 31,-238 7,-83 15,-133 20,-124 10,17 83,315 99,402 10,55 19,143 52,530 6,76 11,399 12,780 1,614 3,659 24,810 32,228 50,314 92,445 94,288 226,395 285,233 26,-71 31,-298 11,-535 -9,-106 -20,-267 -26,-358 -5,-91 -14,-250 -21,-355 -22,-351 8,-956 61,-1245 19,-108 94,-373 111,-395 4,-5 18,-39 32,-75 20,-53 108,-256 192,-444 12,-27 14,29 11,449 -2,428 -5,494 -23,610 -26,162 -34,330 -34,745 0,309 5,420 33,765 6,83 12,314 12,515 1,351 0,368 -21,436 -38,119 -119,226 -206,270 -78,41 -193,53 -297,33 z"
         id="path7189" />
      <path
         d="m 7874,6145 c -126,-27 -272,-127 -348,-238 -48,-70 -118,-250 -149,-384 -35,-150 -51,-387 -51,-788 -1,-339 11,-516 40,-610 27,-89 56,-165 63,-165 12,0 50,78 90,182 23,61 50,161 65,239 23,121 64,498 81,734 12,176 52,365 105,509 38,101 126,175 207,176 33,0 84,-35 103,-71 20,-37 54,-280 64,-464 16,-273 26,-453 31,-580 9,-232 30,-427 66,-615 25,-130 56,-213 113,-310 25,-41 55,-94 68,-118 12,-23 27,-41 33,-39 5,2 18,41 29,88 17,75 19,143 23,644 6,755 -12,1150 -63,1335 -70,255 -125,348 -248,422 -105,64 -201,79 -322,53 z"
         id="path7191" />
      <path
         d="m 5335,6055 c -132,-36 -305,-167 -361,-274 -18,-37 -40,-77 -48,-91 -8,-14 -26,-50 -39,-80 -77,-175 -95,-264 -117,-585 -5,-77 -14,-192 -20,-256 -5,-64 -10,-181 -11,-260 -1,-136 1,-149 30,-234 32,-96 63,-135 107,-135 13,0 32,8 43,19 31,31 89,199 105,301 8,52 24,151 36,220 11,69 27,190 36,270 31,305 65,456 129,579 66,125 142,190 224,194 111,4 117,-82 60,-808 -7,-77 -12,-273 -13,-435 -1,-284 0,-298 22,-370 31,-98 52,-139 78,-157 19,-12 27,-12 56,0 47,20 75,55 87,108 6,26 15,59 21,74 14,36 46,278 60,445 6,74 17,203 25,285 8,83 17,191 20,240 14,207 35,339 59,375 33,50 127,145 167,169 47,29 107,28 118,-1 4,-13 11,-225 14,-473 11,-790 38,-1050 124,-1182 23,-36 33,-43 59,-43 48,0 63,9 84,51 66,129 72,184 79,849 8,649 5,624 76,694 40,40 109,66 127,48 25,-25 38,-158 48,-477 12,-399 27,-726 40,-857 12,-123 53,-252 90,-290 54,-53 78,-31 126,114 77,232 94,397 94,892 -1,485 -17,626 -87,765 -56,112 -85,145 -149,177 -125,61 -348,39 -446,-44 -16,-13 -22,-9 -67,40 -27,29 -73,67 -103,83 -48,27 -62,30 -143,30 -100,0 -164,-21 -295,-97 -36,-21 -69,-38 -75,-38 -6,0 -37,27 -70,61 -33,33 -76,69 -95,79 -75,38 -214,50 -305,25 z"
         id="path7193" />
      <path
         d="m 3785,5709 c -200,-46 -386,-188 -477,-364 -85,-165 -93,-197 -93,-385 0,-189 5,-210 88,-379 55,-111 88,-150 208,-246 71,-58 171,-112 259,-141 41,-13 84,-18 170,-18 111,1 118,2 218,43 135,54 201,97 289,188 96,98 140,175 195,338 28,85 36,302 14,404 -56,263 -302,508 -559,556 -86,16 -249,18 -312,4 z m 306,-360 c 100,-47 193,-153 224,-256 28,-93 15,-232 -34,-345 -22,-51 -127,-160 -180,-188 -21,-10 -66,-26 -101,-35 -84,-22 -157,-8 -238,45 -136,88 -212,223 -212,376 0,184 82,323 234,400 68,34 75,35 161,32 71,-3 102,-9 146,-29 z"
         id="path7195" />
      <path
         d="m 3920,5164 c -93,-31 -115,-60 -114,-151 1,-60 20,-95 67,-123 71,-44 151,-35 215,25 34,31 37,38 37,88 0,87 -55,143 -155,160 -19,3 -42,3 -50,1 z"
         id="path7197" />
      <path
         d="m 4285,4191 c -118,-29 -195,-80 -279,-183 -141,-174 -198,-400 -200,-793 -2,-340 21,-524 76,-612 39,-65 111,-37 161,63 34,68 53,151 73,317 9,78 18,147 19,153 2,6 50,20 107,32 142,28 212,56 263,106 59,56 75,111 50,167 -48,105 -190,145 -335,95 -24,-8 -46,-13 -48,-11 -11,11 23,135 48,180 49,85 106,134 175,149 39,8 129,-16 198,-53 121,-66 174,-62 257,18 105,102 68,227 -88,298 -42,19 -95,43 -117,53 -22,10 -58,23 -80,29 -59,16 -200,12 -280,-8 z"
         id="path7199" />
      <path
         d="m 7568,3826 c -93,-25 -176,-101 -210,-191 -20,-54 -22,-83 -26,-301 -5,-307 10,-581 38,-694 23,-92 94,-249 136,-299 14,-17 47,-44 73,-59 43,-25 54,-27 156,-27 98,0 116,3 166,26 59,28 153,96 204,148 17,17 55,57 86,88 101,104 185,250 235,408 39,120 39,267 2,391 -31,103 -97,220 -168,295 -88,95 -265,189 -408,218 -70,15 -225,13 -284,-3 z m 276,-356 c 84,-26 180,-92 222,-152 67,-98 67,-267 0,-395 -46,-87 -120,-179 -193,-238 -66,-54 -149,-99 -158,-86 -3,6 -17,87 -30,182 -23,153 -25,198 -23,427 l 3,256 25,13 c 36,18 78,16 154,-7 z"
         id="path7201" />
      <path
         d="m 5295,3819 c -159,-20 -278,-81 -405,-209 -201,-202 -256,-405 -200,-735 26,-149 44,-213 87,-299 36,-71 108,-176 121,-176 4,0 30,-23 57,-51 29,-30 77,-63 115,-81 56,-27 79,-32 171,-36 81,-3 119,0 165,13 76,22 157,62 217,108 48,36 147,136 147,148 0,3 14,24 31,45 42,51 85,149 111,248 37,143 11,421 -51,559 -10,23 -38,85 -62,137 -56,126 -76,156 -143,217 -99,91 -222,129 -361,112 z m 111,-357 c 18,-11 78,-110 111,-182 54,-116 61,-134 78,-214 32,-144 3,-240 -111,-369 -63,-73 -83,-89 -132,-107 -66,-25 -141,-23 -172,5 -29,26 -96,144 -129,227 -39,96 -60,284 -42,370 23,107 120,208 248,258 49,19 129,26 149,12 z"
         id="path7203" />
      <path
         d="m 6480,3820 c -93,-17 -224,-121 -262,-207 -11,-24 -32,-63 -48,-86 -79,-118 -145,-287 -170,-435 -29,-173 46,-458 146,-558 19,-19 34,-39 34,-43 0,-22 124,-131 199,-175 186,-109 373,-115 545,-17 57,33 88,65 146,151 19,29 43,61 52,71 43,46 82,155 118,334 44,212 21,448 -57,600 -47,91 -164,219 -244,266 -138,82 -330,124 -459,99 z m 251,-374 c 57,-27 148,-124 176,-186 47,-106 48,-246 3,-380 -54,-162 -131,-280 -198,-306 -56,-22 -100,-8 -190,61 -131,100 -187,204 -185,345 0,93 11,131 75,275 56,126 104,203 131,208 46,10 153,1 188,-17 z"
         id="path7205" />
      <path
         d="M 10080,80 V 0 h 80 80 v 80 80 h -80 -80 z"
         id="path7207" />
    </g>
    <text
       xml:space="preserve"
       style="font-size:47.8443px;font-family:'Saira Stencil One';-inkscape-font-specification:'Saira Stencil One';text-align:center;text-anchor:middle;white-space:pre;inline-size:705.843;display:inline;fill:#000000;stroke:#000000;stroke-width:0.15"
       x="428.45721"
       y="169.00714"
       id="text7634-4"
       transform="matrix(0.02992598,0,0,0.0229561,-2.4374245,13.571301)"><tspan
         x="428.45721"
         y="169.00714"
         id="tspan17387"><tspan
           style="font-family:Purisa;-inkscape-font-specification:Purisa"
           id="tspan17385">why not hooman food?</tspan></tspan></text>
    <g
       id="g871"
       transform="matrix(0.31852357,0,0,0.26116555,7.531739,3.7401808)">
      <path
         sodipodi:nodetypes="cc"
         style="fill:none;stroke:#000000;stroke-width:0.6;stroke-linecap:round;stroke-linejoin:round;stroke-miterlimit:10;stroke-dasharray:none;stroke-opacity:1"
         d="m 3.50025,2.85 h 4.9995"
         id="path12"
         inkscape:connector-curvature="0" />
      <g
         clip-path="url(#clip1-9)"
         id="g18"
         style="clip-rule:nonzero;stroke-width:0.6;stroke-linecap:round;stroke-linejoin:round;stroke-miterlimit:10;stroke-dasharray:none"
         transform="translate(8.8571273,0.54437811)">
        <g
           clip-path="url(#clip2-2)"
           id="g16"
           style="clip-rule:nonzero;stroke-width:0.6;stroke-linecap:round;stroke-linejoin:round;stroke-miterlimit:10;stroke-dasharray:none" />
      </g>
      <path
         sodipodi:nodetypes="cc"
         style="fill:none;stroke:#000000;stroke-width:0.6;stroke-linecap:round;stroke-linejoin:round;stroke-miterlimit:10;stroke-dasharray:none;stroke-opacity:1"
         d="M 6,0.99975 5.9997487,8.7762923"
         id="path12-0"
         inkscape:connector-curvature="0" />
      <g
         id="g820"
         transform="translate(-2.5348808e-4,2.7762923)">
        <path
           inkscape:connector-curvature="0"
           id="path12-3"
           d="M 4.7968773,7.5729162 C 4.346914,7.9186385 3.8385448,8.2239577 3.2239616,8.2239577 1.9947952,8.2239577 1.0000035,7.2291662 1.0000035,6 c 0,-1.2291663 0.9947917,-2.2239578 2.2239581,-2.2239578 0.6145832,0 1.1229524,0.3053192 1.5729157,0.6510415 C 5.3203143,4.8292583 6.0000022,6 6.0000022,6 c 0,0 -0.6796881,1.1707416 -1.2031249,1.5729162 z"
           style="fill:none;stroke:#000000;stroke-width:0.6;stroke-linecap:round;stroke-linejoin:round;stroke-miterlimit:10;stroke-dasharray:none;stroke-opacity:1"
           sodipodi:nodetypes="ssssscs" />
        <path
           inkscape:connector-curvature="0"
           id="path12-6"
           d="M 7.2031094,7.572916 C 7.6530716,7.9186399 8.161442,8.2239576 8.7760251,8.2239576 10.005191,8.2239576 10.999983,7.2291662 10.999983,6 c 0,-1.2291663 -0.994792,-2.2239578 -2.2239579,-2.2239578 -0.6145831,0 -1.1229535,0.3053176 -1.5729157,0.6510415 C 6.6796767,4.829258 6.0000022,6 6.0000022,6 c 0,0 0.6796747,1.1707419 1.2031072,1.572916 z"
           style="fill:none;stroke:#000000;stroke-width:0.6;stroke-linecap:round;stroke-linejoin:round;stroke-miterlimit:10;stroke-dasharray:none;stroke-opacity:1"
           sodipodi:nodetypes="ssssscs" />
      </g>
      <path
         sodipodi:nodetypes="cc"
         style="fill:none;stroke:#000000;stroke-width:0.6;stroke-linecap:round;stroke-linejoin:round;stroke-miterlimit:10;stroke-dasharray:none;stroke-opacity:1"
         d="M 3.5001305,4.70025 H 8.4996304"
         id="path12-36"
         inkscape:connector-curvature="0" />
    </g>
    <g
       id="g859"
       transform="matrix(0.21634425,0,0,0.19713222,11.971552,4.1395941)">
      <path
         style="fill:none;stroke:#000000;stroke-width:0.6;stroke-linecap:butt;stroke-linejoin:miter;stroke-miterlimit:10;stroke-opacity:1"
         d="M 11,6 C 11,3.2382812 8.7617188,1 6,1 3.2382812,1 1,3.2382812 1,6 c 0,2.7617188 2.2382812,5 5,5 2.7617188,0 5,-2.2382812 5,-5 z m 0,0"
         id="path2-8"
         inkscape:connector-curvature="0" />
      <path
         style="fill:none;stroke:#000000;stroke-width:0.6;stroke-linecap:butt;stroke-linejoin:miter;stroke-miterlimit:10;stroke-opacity:1"
         d="M 1,6 H 11"
         id="path6-1"
         inkscape:connector-curvature="0" />
      <path
         style="fill:#000000;fill-opacity:1;fill-rule:nonzero;stroke:none;stroke-width:1"
         d="m 6.8984379,3.4999999 c 0,-0.496094 -0.4023439,-0.8984379 -0.8984378,-0.8984379 -0.4960941,0 -0.8984381,0.4023439 -0.8984381,0.8984379 0,0.4960941 0.4023442,0.898438 0.8984381,0.898438 0.4960939,0 0.8984378,-0.4023439 0.8984378,-0.898438"
         id="path2-3"
         inkscape:connector-curvature="0" />
      <path
         style="fill:#000000;fill-opacity:1;fill-rule:nonzero;stroke:none;stroke-width:1"
         d="m 6.8984379,8.5 c 0,-0.496094 -0.4023439,-0.898438 -0.8984378,-0.898438 -0.4960941,0 -0.8984381,0.402344 -0.8984381,0.898438 0,0.4960941 0.4023442,0.898438 0.8984381,0.898438 0.4960939,0 0.8984378,-0.4023439 0.8984378,-0.898438"
         id="path2-6"
         inkscape:connector-curvature="0" />
    </g>
    <g
       id="g14720"
       transform="matrix(0.21052388,0,0,0.21090255,15.288435,4.0086649)">
      <path
         inkscape:connector-curvature="0"
         id="path4"
         d="M 0.99975,11.00025 6,0.99975 l 5.00025,10.0005"
         style="fill:none;stroke:#000000;stroke-width:0.6;stroke-linecap:round;stroke-linejoin:round;stroke-miterlimit:10;stroke-dasharray:none;stroke-opacity:1"
         sodipodi:nodetypes="ccc" />
      <path
         inkscape:connector-curvature="0"
         id="path4-3"
         d="M 0.99974985,0.99975 5.9999994,11.00025 11.00025,0.99975 Z"
         style="fill:none;stroke:#000000;stroke-width:0.6;stroke-linecap:round;stroke-linejoin:round;stroke-miterlimit:10;stroke-dasharray:none;stroke-opacity:1"
         sodipodi:nodetypes="cccc" />
    </g>
    <text
       xml:space="preserve"
       style="font-size:0.961746px;font-family:Purisa;-inkscape-font-specification:Purisa;text-align:center;text-anchor:middle;fill:#000000;stroke:#000000;stroke-width:0.00601091"
       x="9.3428011"
       y="20.894836"
       id="text17308"
       transform="scale(1.0869037,0.92004473)"><tspan
         sodipodi:role="line"
         id="tspan17306"
         style="font-style:normal;font-variant:normal;font-weight:normal;font-stretch:normal;font-size:0.961746px;font-family:'Noto Mono';-inkscape-font-specification:'Noto Mono';stroke-width:0.00601091"
         x="9.3428011"
         y="20.894836">homa manĝaĵo ne estas kaptilo</tspan></text>
  </g>
</svg>
